<?xml version="1.0" standalone="no"?>
<svg xmlns:xlink="http://www.w3.org/1999/xlink" id="wave" style="transform:rotate(0deg); transition: 0.3s" viewBox="0 0 1440 320" version="1.1" xmlns="http://www.w3.org/2000/svg"><defs><linearGradient id="sw-gradient-0" x1="0" x2="0" y1="1" y2="0"><stop stop-color="rgba(255, 255, 255, 1)" offset="0%"/><stop stop-color="rgba(255, 255, 255, 1)" offset="100%"/></linearGradient></defs><path style="transform:translate(0, 0px); opacity:1" fill="url(#sw-gradient-0)" d="M0,96L40,122.7C80,149,160,203,240,197.3C320,192,400,128,480,117.3C560,107,640,149,720,176C800,203,880,213,960,186.7C1040,160,1120,96,1200,85.3C1280,75,1360,117,1440,128C1520,139,1600,117,1680,133.3C1760,149,1840,203,1920,208C2000,213,2080,171,2160,176C2240,181,2320,235,2400,240C2480,245,2560,203,2640,197.3C2720,192,2800,224,2880,213.3C2960,203,3040,149,3120,133.3C3200,117,3280,139,3360,138.7C3440,139,3520,117,3600,133.3C3680,149,3760,203,3840,229.3C3920,256,4000,256,4080,229.3C4160,203,4240,149,4320,133.3C4400,117,4480,139,4560,160C4640,181,4720,203,4800,218.7C4880,235,4960,245,5040,208C5120,171,5200,85,5280,85.3C5360,85,5440,171,5520,218.7C5600,267,5680,277,5720,282.7L5760,288L5760,320L5720,320C5680,320,5600,320,5520,320C5440,320,5360,320,5280,320C5200,320,5120,320,5040,320C4960,320,4880,320,4800,320C4720,320,4640,320,4560,320C4480,320,4400,320,4320,320C4240,320,4160,320,4080,320C4000,320,3920,320,3840,320C3760,320,3680,320,3600,320C3520,320,3440,320,3360,320C3280,320,3200,320,3120,320C3040,320,2960,320,2880,320C2800,320,2720,320,2640,320C2560,320,2480,320,2400,320C2320,320,2240,320,2160,320C2080,320,2000,320,1920,320C1840,320,1760,320,1680,320C1600,320,1520,320,1440,320C1360,320,1280,320,1200,320C1120,320,1040,320,960,320C880,320,800,320,720,320C640,320,560,320,480,320C400,320,320,320,240,320C160,320,80,320,40,320L0,320Z"/></svg>